<?xml version="1.0" encoding="UTF-8"?>
<svg version="1.1" xmlns="http://www.w3.org/2000/svg" width="60" height="60">
<path d="M0 0 C1.48310457 0.89779909 2.94525803 1.831949 4.375 2.8125 C5.4475 3.493125 6.52 4.17375 7.625 4.875 C13.54036409 10.35093705 16.60382396 17.92836375 17.03881836 25.86254883 C17.12585921 33.48894282 15.72725946 39.46646804 11.375 45.8125 C10.3540625 47.42125 10.3540625 47.42125 9.3125 49.0625 C3.83656295 54.97786409 -3.74086375 58.04132396 -11.67504883 58.47631836 C-19.30144282 58.56335921 -25.27896804 57.16475946 -31.625 52.8125 C-32.6975 52.131875 -33.77 51.45125 -34.875 50.75 C-40.79016687 45.27424552 -43.85457117 37.69638394 -44.28857422 29.76220703 C-44.37649842 22.13792233 -42.94590702 16.17418526 -38.625 9.8125 C-38.068125 8.905 -37.51125 7.9975 -36.9375 7.0625 C-27.38100844 -2.23570801 -12.3372815 -6.00853862 0 0 Z " fill="#3B7BFE" transform="translate(43.625,2.1875)"/>
<path d="M0 0 C1.8253125 -0.01546875 1.8253125 -0.01546875 3.6875 -0.03125 C7.53087717 0.58514068 8.72708935 1.39146044 11 4.5 C11.62723542 8.73383909 11.32073013 10.89417642 9.3125 14.6875 C7.01122025 17.48635375 5.09717955 19.61147588 2 21.5 C-1.70707153 21.59505312 -3.16190277 20.38254113 -6.1875 18.1875 C-9.92619351 14.61497065 -10.82703176 13.11437027 -11.375 8 C-11 4.5 -11 4.5 -9.4140625 2.3125 C-6.16989853 -0.12324771 -4.02222512 -0.03408665 0 0 Z " fill="#F8FAFE" transform="translate(30,12.5)"/>
<path d="M0 0 C0.33 0 0.66 0 1 0 C1.66 3.3 2.32 6.6 3 10 C3.99 10.33 4.98 10.66 6 11 C6.33 10.01 6.66 9.02 7 8 C8.31322788 8.97819024 9.62556152 9.9575811 10.9375 10.9375 C11.66839844 11.48277344 12.39929688 12.02804688 13.15234375 12.58984375 C15 14 15 14 16 15 C16.35897436 21.46153846 16.35897436 21.46153846 14 25 C13.56429688 24.62488281 13.12859375 24.24976562 12.6796875 23.86328125 C11.78636719 23.09564453 11.78636719 23.09564453 10.875 22.3125 C10.23949219 21.76464844 9.60398437 21.21679688 8.94921875 20.65234375 C7.73826753 19.62582598 6.5138016 18.61477282 5.26953125 17.62890625 C-0.01761286 13.43835499 -0.01761286 13.43835499 -1 10 C-1.51478261 3.02956522 -1.51478261 3.02956522 0 0 Z " fill="#EAF1FE" transform="translate(13,24)"/>
<path d="M0 0 C2 2 2 2 2.375 5.25 C1.67669822 12.23301784 -1.92577134 15.0999117 -7.125 19.375 C-11.70037453 23 -11.70037453 23 -14 23 C-15.44430855 20.11138291 -15.37688506 18.20352299 -15 15 C-12.34774458 11.83202825 -9.37146475 9.37251223 -6 7 C-6.33 8.65 -6.66 10.3 -7 12 C-4.44209319 11.12112985 -4.44209319 11.12112985 -2 9 C-0.95977199 6.0518161 -0.43412264 3.09069405 0 0 Z " fill="#F1F5FE" transform="translate(46,25)"/>
<path d="M0 0 C0.66 0 1.32 0 2 0 C2 0.99 2 1.98 2 3 C2.99 3 3.98 3 5 3 C5 3.66 5 4.32 5 5 C4.01 5 3.02 5 2 5 C2 6.32 2 7.64 2 9 C1.34 9 0.68 9 0 9 C0 7.68 0 6.36 0 5 C-0.99 5 -1.98 5 -3 5 C-3 4.34 -3 3.68 -3 3 C-2.01 3 -1.02 3 0 3 C0 2.01 0 1.02 0 0 Z " fill="#568DFE" transform="translate(29,19)"/>
</svg>
